<svg xmlns="http://www.w3.org/2000/svg" version="1.1" xmlns:xlink="http://www.w3.org/1999/xlink" xmlns:svgjs="http://svgjs.dev/svgjs" viewBox="0 0 800 800"><g transform="matrix(1,0,0,1,0,0)"><circle r="350" cx="368" cy="375" stroke-width="0.5" stroke="#ff0077" fill="none" opacity="0.01" transform="matrix(4.574329190217503,0.9945218953682734,-1.4862896509547876,-0.10452846326765333,-697.7865646832242,44.00262715975202)"></circle><circle r="342.72727272727275" cx="368.969696969697" cy="375.75757575757575" stroke-width="0.5" stroke="#fb0d7d" fill="none" opacity="0.04" transform="matrix(4.302780440401331,0.996062435250455,-1.2338024372183327,-0.09989911921427966,-698.1046571951146,40.34299496784223)"></circle><circle r="335.45454545454544" cx="369.93939393939394" cy="376.5151515151515" stroke-width="0.5" stroke="#f71383" fill="none" opacity="0.06999999999999999" transform="matrix(4.0625069194823995,0.9997021083841023,-1.0128967367711494,-0.09545997707320106,-697.93024984571,36.12700451730194)"></circle><circle r="328.1818181818182" cx="370.90909090909093" cy="377.27272727272725" stroke-width="0.5" stroke="#f31789" fill="none" opacity="0.09999999999999999" transform="matrix(3.8476674148503056,1.0054775708000572,-0.8178469561503647,-0.09118392309631793,-697.2661330396894,31.32107067246443)"></circle><circle r="320.90909090909093" cx="371.8787878787879" cy="378.030303030303" stroke-width="0.5" stroke="#ef1a8f" fill="none" opacity="0.13" transform="matrix(3.6537821713668617,1.013448856734581,-0.6442603784435372,-0.08704519972764362,-696.112558031886,25.882594318673227)"></circle><circle r="313.6363636363636" cx="372.8484848484849" cy="378.7878787878788" stroke-width="0.5" stroke="#eb1e94" fill="none" opacity="0.16" transform="matrix(3.4773588958529533,1.023700950036625,-0.4887109217829603,-0.08301896949116602,-694.4681249131868,19.759149386700926)"></circle><circle r="306.3636363636364" cx="373.8181818181818" cy="379.54545454545456" stroke-width="0.5" stroke="#e72099" fill="none" opacity="0.19" transform="matrix(3.3156356338142965,1.0363460702735556,-0.3484873477116779,-0.07908088941529462,-692.330385552109,12.887363710805289)"></circle><circle r="299.0909090909091" cx="374.7878787878788" cy="380.3030303030303" stroke-width="0.5" stroke="#e2239e" fill="none" opacity="0.22" transform="matrix(3.1664000181145284,1.0515267909532646,-0.22141625860462222,-0.07520668038086947,-689.6963016691868,5.191498062923699)"></circle><circle r="291.8181818181818" cx="375.75757575757575" cy="381.06060606060606" stroke-width="0.5" stroke="#de25a3" fill="none" opacity="0.25" transform="matrix(3.0278596724337743,1.0694201564232728,-0.1057351896744182,-0.07137167461352478,-686.562476135724,-3.418427535809201)"></circle><circle r="284.54545454545456" cx="376.72727272727275" cy="381.8181818181818" stroke-width="0.5" stroke="#d928a7" fill="none" opacity="0.28" transform="matrix(2.898547639617056,1.090243027880343,0,-0.06755032217337786,-682.9255192297849,-13.048917446583516)"></circle><circle r="277.27272727272725" cx="377.6969696969697" cy="382.57575757575756" stroke-width="0.5" stroke="#d52aac" fill="none" opacity="0.31" transform="matrix(2.7772522670506223,1.1142589743056763,0.09698378623810877,-0.06371563341265496,-678.7821498765755,-23.8260142546942)"></circle><circle r="270" cx="378.6666666666667" cy="383.3333333333333" stroke-width="0.5" stroke="#d02cb0" fill="none" opacity="0.33999999999999997" transform="matrix(2.6629644747129837,1.141787140860083,0.18621261603550399,-0.05983852846640997,-674.1293893389657,-35.899079321190015)"></circle><circle r="262.72727272727275" cx="379.6363636363636" cy="384.09090909090907" stroke-width="0.5" stroke="#cb2eb5" fill="none" opacity="0.37" transform="matrix(2.554837577374589,1.1732136899107584,0.2685242497979695,-0.05588705611523459,-668.9645415424295,-49.44573672415322)"></circle><circle r="255.45454545454544" cx="380.6060606060606" cy="384.8484848484849" stroke-width="0.5" stroke="#c730b9" fill="none" opacity="0.4" transform="matrix(2.452156306779781,1.2090066404802924,0.3446280941755644,-0.05182543157061603,-663.2854741685105,-64.67810237204975)"></circle><circle r="248.1818181818182" cx="381.57575757575756" cy="385.6060606060606" stroke-width="0.5" stroke="#c132bd" fill="none" opacity="0.43" transform="matrix(2.354312666164834,1.249735264543394,0.41512884406854156,-0.04761282394178967,-657.0905625443085,-81.8510825620017)"></circle><circle r="240.9090909090909" cx="382.54545454545456" cy="386.3636363636364" stroke-width="0.5" stroke="#bc33c1" fill="none" opacity="0.45999999999999996" transform="matrix(2.2607869211392053,1.2960956867785316,0.48054509462590467,-0.043201796272251736,-650.3788159865765,-101.27320656544867)"></circle><circle r="233.63636363636363" cx="383.5151515151515" cy="387.1212121212121" stroke-width="0.5" stroke="#b735c5" fill="none" opacity="0.49" transform="matrix(2.1711324956078144,1.348945064053778,0.5413241290378272,-0.03853625912987313,-643.149768613936,-123.3212059557124)"></circle><circle r="226.36363636363637" cx="384.4848484848485" cy="387.8787878787879" stroke-width="0.5" stroke="#b237c9" fill="none" opacity="0.52" transform="matrix(2.0849638675908317,1.4093478331527614,0.5978537685055094,-0.03354873465032282,-635.4037881891381,-148.45953469258677)"></circle><circle r="219.0909090909091" cx="385.45454545454544" cy="388.6363636363636" stroke-width="0.5" stroke="#ac38cd" fill="none" opacity="0.55" transform="matrix(2.001946791886141,1.478639247210078,0.6504719434940865,-0.02815662796065177,-627.1417779176655,-177.26731203158977)"></circle><circle r="211.8181818181818" cx="386.42424242424244" cy="389.3939393939394" stroke-width="0.5" stroke="#a63ad0" fill="none" opacity="0.58" transform="matrix(1.9217903437387949,1.5585141825285636,0.6994744816211346,-0.022257043370445317,-618.3655439776903,-210.47606049278374)"></circle><circle r="204.54545454545456" cx="387.3939393939394" cy="390.1515151515151" stroke-width="0.5" stroke="#a03bd4" fill="none" opacity="0.61" transform="matrix(1.8442403995704835,1.6511537159854972,0.7451214881711841,-0.015719421504914677,-609.0774648126256,-249.02341295055305)"></circle><circle r="197.27272727272728" cx="388.3636363636364" cy="390.90909090909093" stroke-width="0.5" stroke="#9a3dd8" fill="none" opacity="0.64" transform="matrix(1.7690742606347358,1.759409586783098,0.7876426072755741,-0.00837483330023936,-599.2807951188672,-294.13123434985516)"></circle><circle r="190" cx="389.3333333333333" cy="391.6666666666667" stroke-width="0.5" stroke="#933edb" fill="none" opacity="0.6699999999999999" transform="matrix(1.696096192312852,1.8870799147998583,0.8272413863334485,0,-588.9795078325021,-347.42267554774605)"></circle><circle r="182.72727272727272" cx="390.3030303030303" cy="392.42424242424244" stroke-width="0.5" stroke="#8c3fdf" fill="none" opacity="0.7" transform="matrix(1.6251337019948253,2.03933351953903,0.8640989170615838,0.009707278167647937,-578.1783781957696,-411.10213298581016)"></circle><circle r="175.45454545454547" cx="391.27272727272725" cy="393.1818181818182" stroke-width="0.5" stroke="#8541e2" fill="none" opacity="0.73" transform="matrix(1.5560344165665572,2.22338543618434,0.898376889273024,0.02116721932119492,-566.8828166938108,-488.2419416776253)"></circle><circle r="168.1818181818182" cx="392.24242424242425" cy="393.93939393939394" stroke-width="0.5" stroke="#7e42e6" fill="none" opacity="0.76" transform="matrix(1.4886634496307023,2.4496160470048243,0.9302201649818411,0.03498281325272934,-555.0991116927937,-583.2570263875217)"></circle><circle r="160.9090909090909" cx="393.2121212121212" cy="394.6969696969697" stroke-width="0.5" stroke="#7543e9" fill="none" opacity="0.79" transform="matrix(1.4229011710119857,2.733515404605969,0.9597589584726467,0.052052301747992025,-542.8342550425667,-702.7299334611031)"></circle><circle r="153.63636363636365" cx="394.1818181818182" cy="395.45454545454544" stroke-width="0.5" stroke="#6d45ec" fill="none" opacity="0.82" transform="matrix(1.358641308501197,3.099261985456562,0.9871106909309708,0.07377619315546668,-530.0960108341275,-856.9291770962132)"></circle><circle r="146.36363636363637" cx="395.1515151515151" cy="396.2121212121212" stroke-width="0.5" stroke="#6346ef" fill="none" opacity="0.85" transform="matrix(1.2957893253936992,3.586799851177543,1.012381574910933,0.10246662536174234,-516.8927426928367,-1062.812084111413)"></circle><circle r="139.0909090909091" cx="396.1212121212121" cy="396.969696969697" stroke-width="0.5" stroke="#5947f3" fill="none" opacity="0.88" transform="matrix(1.234261028079132,4.26718049698118,1.03566797343769,0.14223476273245805,-503.23363387387684,-1350.5339897056583)"></circle><circle r="131.8181818181818" cx="397.0909090909091" cy="397.72727272727275" stroke-width="0.5" stroke="#4d48f6" fill="none" opacity="0.9099999999999999" transform="matrix(1.1739813664104888,5.280150474981572,1.0570575702463085,0.2011649043474094,-489.12850790649844,-1779.3963551450613)"></circle><circle r="124.54545454545456" cx="398.06060606060606" cy="398.4848484848485" stroke-width="0.5" stroke="#3f4af9" fill="none" opacity="0.94" transform="matrix(1.1148833963272968,6.943609973644448,1.0766303810520572,0.29764566338461484,-474.5878619293592,-2484.288736598193)"></circle><circle r="117.27272727272728" cx="399.030303030303" cy="399.24242424242425" stroke-width="0.5" stroke="#2c4bfc" fill="none" opacity="0.97" transform="matrix(1.0569073796108357,10.170261763660816,1.094459630455977,0.48446927851274546,-459.62278671052087,-3852.4690679109026)"></circle><circle r="110" cx="400" cy="400" stroke-width="0.5" stroke="#004cff" fill="none" opacity="1" transform="matrix(1,19.08113668772816,1.1106125148291928,1,-444.24500593167704,-7632.454675091265)"></circle></g></svg>